<?xml version="1.0" encoding="utf-8"?>
<!-- Generator: Adobe Illustrator 27.5.0, SVG Export Plug-In . SVG Version: 6.00 Build 0)  -->
<svg version="1.1" id="Capa_1" xmlns="http://www.w3.org/2000/svg" xmlns:xlink="http://www.w3.org/1999/xlink" x="0px" y="0px"
	 viewBox="0 0 1950 2309" style="enable-background:new 0 0 1950 2309;" xml:space="preserve">
<path style="fill:#203A73;" d="M832.18,1908.598c-6.84,4.164-12.789,7.605-17.621,10.16c-7.18,3.801-14.379,7.645-21.598,11.484
	c-8.824,42.289-18.664,84.359-29.473,126.184c16.539,3.117,35.769,6.473,47.832,2.813c19.656-5.965,15.555-22.953,15.398-43.25
	C826.445,1980.363,830.258,1944.215,832.18,1908.598z"/>
<path style="fill:#203A73;" d="M407.016,1894.031c7.793-48.625,15.59-97.262,23.379-145.895c4.82-30.074,2.004-54.586-27.477-69.133
	c-5.289-2.609-10.539-4.859-15.688-7.004c5.352,13.664,8.906,27.457,8.117,41.395c-2.82,49.82-23.035,104.168-33.828,152.988
	c-2.441,11.031-4.836,22.82-0.828,33.383c4.344,11.457,15.227,18.918,25.625,25.406c5.957,3.723,12.023,7.266,18.07,10.84
	C402.852,1922.367,404.82,1907.734,407.016,1894.031z"/>
<path style="fill:#20325F;" d="M792.961,1930.242c-17.949,9.547-36.051,19.039-54.43,27.789
	c-9.192,30.016-18.383,60.035-27.574,90.055c11.203,1.891,22.434,3.594,33.703,5.051c5.281,0.691,11.816,1.969,18.828,3.289
	C774.297,2014.602,784.137,1972.531,792.961,1930.242z"/>
<path style="fill:#20325F;" d="M488.086,1816.941c-1.723-55.227-21.676-108.605-49.535-156.379
	c-3.563-0.316-7.125-0.637-10.684-0.957c-17.012-1.555-34.801-3.68-50.551-9.754c3.59,7.344,7.012,14.73,9.914,22.148
	c5.148,2.145,10.398,4.395,15.688,7.004c29.48,14.547,32.297,39.059,27.477,69.133c-7.789,48.633-15.586,97.27-23.379,145.895
	c-2.195,13.703-4.164,28.336-2.629,41.98c29.465,17.438,59.906,33.207,91.191,47.121c-4.125-11-7.273-22.41-9.203-34.301
	C479.313,1905.352,489.457,1860.969,488.086,1816.941z"/>
<path style="fill:#1F2A50;" d="M738.531,1958.031c-8.688,4.137-17.442,8.078-26.273,11.793c-0.375,0.156-0.75,0.316-1.121,0.477
	c-1.887,0.785-3.758,1.609-5.648,2.375c-15.391,6.215-29.262,8.473-41.234-4.719c-8.977-9.898-13.344-23.664-16.086-36.477
	c-2.32-10.824-3.965-21.855-5.027-32.961c-0.082-0.844-0.129-1.688-0.199-2.523c-14.902-19.637-34.09-48.543-40.32-58.426
	c-15.961-25.324-30.719-51.43-45.895-77.223c-17.992-30.59-35.977-61.184-53.965-91.773c-21.121-4.043-42.699-6.082-64.211-8.012
	c27.859,47.773,47.813,101.152,49.535,156.379c1.371,44.027-8.773,88.41-1.711,131.891c1.93,11.891,5.078,23.301,9.203,34.301
	c39.668,17.633,80.602,32.434,122.398,44.156c30.594,8.578,61.648,15.508,92.98,20.797
	C720.148,2018.066,729.34,1988.047,738.531,1958.031z"/>
<path style="fill:#A1A8C3;" d="M810.113,1139.906c-31.176-38.844-55.617-77.484-74.715-123.637
	c-4.734-11.441-9.297-23.391-16.414-33.348c-0.055,12.535,0.273,25.066,1.086,37.574c1.402,21.512,4.375,43.77,15.996,61.926
	c6.352,9.926,14.934,18.059,23.578,26.145c3.793,3.547,7.594,7.086,11.231,10.762c12.148,12.289,15.738,24.969,22.195,38.883
	c0.832,1.797,1.699,3.609,2.656,5.449c2.336,4.504,4.965,9.313,7.758,14.191c0.578,0.129,1.148,0.281,1.727,0.41
	c12.891,2.883,26.352,5.578,37.137,13.039C835.648,1172.973,824.191,1157.445,810.113,1139.906z"/>
<path style="fill:#A1A8C3;" d="M839.805,872.352c-11.086-1.516-47.395-20.016-83.551-41.328c-3.547,2.789-7.012,5.699-10.336,8.797
	c-1.199,1.117-2.184,2.313-3.199,3.496c0.226,0.094,0.422,0.18,0.66,0.277c15.605,6.484,78.191,27.047,86.625,28.684
	c4.781,0.934,11.144,1.805,16.344,0.074C844.223,872.59,842.047,872.656,839.805,872.352z"/>
<path style="fill:#A1A8C3;" d="M381.895,599.496c-0.91-2.324-1.789-4.656-2.551-7.047c-5.996,2.316-11.93,4.555-17.691,6.582
	C366.531,599.082,373.824,599.313,381.895,599.496z"/>
<path style="fill:#203A73;" d="M540.152,914.406c25.59,7.293,52.317,20.613,62.336,45.262c5.887,14.484,5.063,30.773,8.856,45.941
	c5.078,20.328,18.121,37.289,34.523,50.695c9.008,7.367,19.031,13.66,29.305,18.855c27.039,13.664,56.602,21.551,84.473,33.406
	c-8.644-8.086-17.226-16.219-23.578-26.145c-11.621-18.156-14.594-40.414-15.996-61.926c-0.813-12.508-1.141-25.039-1.086-37.574
	c0.004-0.059,0.004-0.117,0.004-0.176c-32.527-24.965-61.207-54.938-84.543-88.66c-12.648-18.277-31.141-31.844-51.125-41.164
	c-22.613-10.547-45.359-9.547-68.953-16.195c-13.512-3.809-30.188-10.711-44.578-20.039c-0.18,10.68-0.609,21.367-1.574,32.078
	c-1.145,12.652-2.395,25.785-4.402,38.781c0.434,0.301,0.84,0.637,1.277,0.934C487.18,903.316,514.563,907.117,540.152,914.406z"/>
<path style="fill:#20325F;" d="M583.32,852.922c19.984,9.32,38.477,22.887,51.125,41.164c23.336,33.723,52.016,63.695,84.543,88.66
	c0.16-31.574,3.027-63.141,8.664-94.207c0.305-1.684,0.582-3.356,0.863-5.023c-19.617-21.816-41.617-41.484-65.57-58.426
	c-12.301-8.699-27.215-22.969-41.43-27.922c-17.879-6.223-41.074-0.348-59.82-2.254c-26.484-2.695-53.199-8.359-76.191-21.77
	c-6.094-3.555-11.895-7.738-17.234-12.426c1.176,18.664,1.84,37.305,1.52,55.969c14.391,9.328,31.066,16.231,44.578,20.039
	C537.961,843.375,560.707,842.375,583.32,852.922z"/>
<path style="fill:#20325F;" d="M546.25,937.816c0.406,0.23,0.813,0.469,1.215,0.707c13.32,7.75,26.301,16.895,33.996,30.152
	c19.254,33.168,0.02,73.457,19.879,103.793c45.531,33.098,99.402,54.684,152.137,75.555c12.941,5.121,25.969,9.875,39.594,10.188
	c-6.457-13.914-10.047-26.594-22.195-38.883c-3.637-3.676-7.438-7.215-11.231-10.762c-27.871-11.855-57.434-19.742-84.473-33.406
	c-10.273-5.195-20.297-11.488-29.305-18.855c-16.402-13.406-29.445-30.367-34.523-50.695c-3.793-15.168-2.969-31.457-8.856-45.941
	c-10.019-24.649-36.746-37.969-62.336-45.262c-25.59-7.289-52.973-11.09-75.063-25.926c-0.438-0.297-0.844-0.633-1.277-0.934
	c-0.594,3.848-1.27,7.672-2.02,11.477c27.863,5.715,60.184,25.027,82.637,37.734C545.039,937.106,545.641,937.469,546.25,937.816z"
	/>
<path style="fill:#1F2A50;" d="M696.488,1141.332c15.277,7.09,30.891,13.465,46.766,19.09c19.715,6.984,39.84,12.797,60.23,17.43
	c-2.793-4.879-5.422-9.688-7.758-14.191c-0.957-1.84-1.824-3.652-2.656-5.449c-13.625-0.313-26.652-5.066-39.594-10.188
	c-52.734-20.871-106.605-42.457-152.137-75.555c2.258,3.449,4.996,6.773,8.379,9.945
	C637.926,1108.809,661.152,1124.926,696.488,1141.332z"/>
<path style="fill:#1F2A50;" d="M561.695,794.914c18.746,1.906,41.941-3.969,59.82,2.254c14.215,4.953,29.129,19.223,41.43,27.922
	c23.953,16.941,45.953,36.609,65.57,58.426c2.492-14.844,4.563-28.977,14.203-40.199c1.016-1.184,2-2.379,3.199-3.496
	c3.324-3.098,6.789-6.008,10.336-8.797c-8.332-4.91-16.645-9.961-24.652-15c-29.715-18.699-55.047-37.078-60.086-46.262
	c-5.254-9.574-5.32-22.59-5.469-33.633c-30.48,30.711-74.59,47.125-120.719,40.519c-30.844-4.422-57.914-18.484-78.652-38.68
	c0.59,7.59,1.117,15.176,1.594,22.75c5.34,4.688,11.141,8.871,17.234,12.426C508.496,786.555,535.211,792.219,561.695,794.914z"/>
<path style="fill:#203A73;" d="M528.738,307.039c-43.895,20.051-74.438,58.559-89.293,102.914
	c14.801,5.098,30.512,7.285,46.477,7.023c2.961-12.031,7.297-23.641,13.242-34.352c19.496-35.125,55.906-55.16,93.5-55.27
	c2.793-7.477,5.648-14.617,8.559-21.316c1.703-3.926,3.43-7.688,5.164-11.297C580.086,291.742,552.973,295.969,528.738,307.039z"/>
<path style="fill:#203A73;" d="M548.769,339.379c-32.211,15.117-51.43,44.594-59.621,77.496
	c28.012-1.023,56.629-9.355,82.289-22.254c6.18-22.852,13.016-44.965,20.301-64.773C577.074,329.875,562.406,332.98,548.769,339.379
	z"/>
<path style="fill:#20325F;" d="M392.055,460.301c11.215,3.805,22.695,6.742,34.309,8.988c0.434-20.523,3.871-40.926,10.301-60.313
	c-5.613-2.094-11.094-4.602-16.391-7.594c-5.523-3.113-10.828-6.777-15.922-10.934c-10.672,21.336-18.719,44.051-24.152,67.449
	C384.109,457.645,388.238,459.008,392.055,460.301z"/>
<path style="fill:#20325F;" d="M482.43,474.16c-2.219-19.145-1.055-38.688,3.492-57.184c-15.965,0.262-31.676-1.926-46.477-7.023
	c-6.434,19.207-9.852,39.523-10.207,59.902C446.766,473.047,464.605,474.461,482.43,474.16z"/>
<path style="fill:#20325F;" d="M489.148,416.875c-4.379,17.586-5.66,36.141-3.965,54.039c0.102,1.078,0.285,2.148,0.41,3.223
	c23.547-0.668,47.004-4.348,69.594-10.98c4.648-22.555,10.125-45.902,16.25-68.535C545.777,407.52,517.16,415.852,489.148,416.875z"
	/>
<path style="fill:#1F2A50;" d="M485.594,474.137c0.609,5.293,1.453,10.563,2.598,15.766c19.676-12.219,42.215-19.965,66.051-22.121
	c0.313-1.539,0.625-3.082,0.945-4.625C532.598,469.789,509.141,473.469,485.594,474.137z"/>
<path style="fill:#1F2A50;" d="M429.238,469.855c-0.016,1.004-0.102,2.004-0.105,3.008c-0.051,21.898,3.422,44.371,10.305,65.672
	c11.805-18.926,27.59-34.883,46.039-46.887c-1.301-5.766-2.363-11.598-3.047-17.488
	C464.605,474.461,446.766,473.047,429.238,469.855z"/>
<path style="fill:#1F2A50;" d="M417.805,599.254c0.094-0.707,0.168-1.414,0.27-2.125c2.891-20.188,9.66-38.856,19.414-55.398
	c-7.863-23.188-11.641-47.863-11.125-72.441c-11.613-2.246-23.094-5.184-34.309-8.988c-3.816-1.293-7.945-2.656-11.855-2.402
	c-6.344,27.313-9.207,55.5-8.473,83.441c0.457,17.184,2.426,34.813,7.617,51.109c0.762,2.391,1.641,4.723,2.551,7.047
	C393.848,599.769,407.539,599.934,417.805,599.254z"/>
<path style="fill:#097CC0;" d="M499.164,382.625c-5.945,10.711-10.281,22.32-13.242,34.352c-4.547,18.496-5.711,38.039-3.492,57.184
	c0.684,5.891,1.746,11.723,3.047,17.488c0.902-0.586,1.801-1.18,2.715-1.746c-1.145-5.203-1.988-10.473-2.598-15.766
	c-0.125-1.074-0.309-2.145-0.41-3.223c-1.695-17.898-0.414-36.453,3.965-54.039c8.191-32.902,27.41-62.379,59.621-77.496
	c13.637-6.398,28.305-9.504,42.969-9.531c0.305-0.836,0.617-1.66,0.926-2.492C555.07,327.465,518.66,347.5,499.164,382.625z"/>
<path style="fill:#097CC0;" d="M429.238,469.855c0.355-20.379,3.773-40.695,10.207-59.902
	c14.855-44.355,45.398-82.863,89.293-102.914c24.234-11.07,51.348-15.297,77.648-12.297c0.43-0.891,0.856-1.773,1.285-2.645
	c-53.633-6.305-108.188,18.473-142.164,62.188c-12.813,16.48-22.332,35.066-28.844,54.691c-6.43,19.387-9.867,39.789-10.301,60.313
	c-0.516,24.578,3.262,49.254,11.125,72.441c0.637-1.078,1.289-2.137,1.949-3.195c-6.883-21.301-10.355-43.774-10.305-65.672
	C429.137,471.859,429.223,470.859,429.238,469.855z"/>
<path style="fill:#EBF2E5;" d="M965.961,680.625c-1.602-10.348-7.641-18.797-14.066-26.543c-7.641-9.211-14.285-20.449-20.914-30.48
	c-7.047-10.668-13.008-22.676-13.137-35.461c-0.027-2.555-0.211-5.512-0.211-8.449c-0.949,0.25-1.914,0.559-2.879,0.934
	c-3.57,1.394-7.113,3.57-9.684,6.129c-2.633,2.617-4.688,7.539-7.867,10.059c0.035,0.477,0.051,0.965,0.094,1.445
	c0.188,2.004,0.461,3.992,0.793,5.949c0.223,1.297,0.09,2.906-0.941,3.859c-0.637,0.582-1.801,0.555-2.594,0.504
	c-3.152-0.199-6.395-1.543-9.422-2.422c-3.125-0.91-6.246-1.844-9.363-2.809c-10.809-3.348-21.523-7.039-31.992-11.348
	c-10.426-4.289-20.605-9.191-30.344-14.875c-0.234-0.141-0.465-0.316-0.676-0.5c-5.551-1.566-10.922-3.766-15.922-6.644
	c-0.789-0.457,10.277-7.719,11.398-8.16c4.039-1.582,8.395-3.293,12.559-4.539c12.023-3.598,25.734-4.859,38.223-5.422
	c6.02-0.27,12.141-0.109,18.113,0.719c0.894-13.242,1.793-26.484,2.144-39.734c0.816-21.562,0.16-43.289-4.394-64.336
	c-4.613-20.938-13.617-41.082-27.613-57.359c-13.801-16.469-30.93-29.891-48.977-41.535c-18.023-11.777-37.254-21.688-56.887-30.629
	c-19.703-8.82-39.734-16.98-60.273-23.637c-20.512-6.73-41.477-12.105-62.688-16.168c-1.152-0.23-2.316-0.41-3.473-0.629
	c-2.453,4.164-4.891,8.699-7.297,13.555c-0.43,0.871-0.855,1.754-1.285,2.645c-1.734,3.609-3.461,7.371-5.164,11.297
	c-8.016,42.289-0.719,87.551,21.262,124.633c24.289,40.973,63.656,70.227,98.547,102.652c28.492,26.48,59.32,60.109,67.695,99.445
	c9.395,44.117-8.316,91.274,0.449,136.457c7.269,37.469,26.352,74.617,57.367,97.785c1.832,1.371,3.691,2.715,5.543,4.078
	c6.801-2.41,12.57-7.598,16.469-14.637c4.543-8.203,6.199-18.996,8.113-28.078c0.484-2.289,0.766-4.539,1.016-6.758
	c-3.031-7.57-4.762-15.66-5.047-23.813c4.098,1.098,8.398,1.422,12.621,1.008c0.852-0.086,1.922-0.359,3.043-0.648
	c1.84-1.102,3.813-1.984,5.691-3.098c7.836-4.625,8.055-14.695,7.164-22.793c7.5-1.582,14.152-7.609,15.102-15.531
	c0.731-6.035-1.644-11.426-1.652-17.113c-0.113-0.621-0.23-1.238-0.332-1.852c-1.016-6.117-1.797-12.684,0.871-18.281
	c3.594-7.535,12.063-10.789,19.691-12.531c4.488-1.023,10.68-3.047,16.156-3.059c0.941-0.477,1.859-0.973,2.707-1.563
	C960.828,697.398,967.398,689.922,965.961,680.625z"/>
<path style="fill:#EBF2E5;" d="M615.781,277.184c0.98,0.168,1.965,0.293,2.945,0.465c21.32,3.848,42.395,9.105,63.051,15.684
	c20.688,6.512,40.855,14.539,60.707,23.23c19.793,8.82,39.227,18.625,57.531,30.375c9.152,5.871,17.898,12.383,26.215,19.406
	c8.316,7.016,16.18,14.637,23.074,23.098c14.144,16.723,23.16,37.379,27.644,58.609c4.426,21.355,4.922,43.23,3.883,64.844
	c-0.672,13.289-1.894,26.524-3.105,39.75c6.887,1.016,13.555,2.957,19.566,6.371c7.355,4.176,16.988,3.738,25.094,0.469
	c3.406-10.75,7.938-25.445,9.648-31.871c22.453-84.414-13.156-186.035-86.707-234.766c-45.23-29.969-99.371-41.891-152.531-44.359
	c-5.965-0.277-40.277-1.984-50.027,1.242c-1.348,0.445-2.691,1.078-4.035,1.813C630.98,255.793,623.273,264.754,615.781,277.184z"/>
<path style="fill:#A1A8C3;" d="M696.859,756.406c-5.836-22.375-3.195-45.586,0.582-68.652
	c-7.145,18.414-17.922,34.797-31.395,48.375c0.148,11.043,0.215,24.059,5.469,33.633c5.039,9.184,30.371,27.563,60.086,46.262
	C716.496,797.953,702.734,778.934,696.859,756.406z"/>
<path style="fill:#C6CAD6;" d="M915.144,719.496c-2.668,5.598-1.887,12.164-0.871,18.281c0.102,0.613,0.219,1.231,0.332,1.852
	c-0.004-1.664,0.168-3.348,0.711-5.086c2.25-7.176,6.184-14.031,11.289-19.559c5.922-6.406,16.516-7.074,24.387-11.078
	c-5.477,0.012-11.668,2.035-16.156,3.059C927.207,708.707,918.738,711.961,915.144,719.496z"/>
<path style="fill:#C6CAD6;" d="M897.293,559.016c-6.012-3.414-12.68-5.355-19.566-6.371c-0.379,4.106-0.734,8.211-1.098,12.32
	c2.496,0.18,4.992,0.305,7.484,0.52c5.059,0.434,10.492,1.078,14.621,4.313c1.598,1.254,2.391,3.16,1.945,5.168
	c-0.254,1.148-0.945,2.195-1.371,3.297c-0.488,1.262-0.891,2.559-1.215,3.871c-1.18,4.785-1.258,9.801-0.891,14.68
	c3.18-2.519,5.234-7.441,7.867-10.059c2.57-2.559,6.113-4.734,9.684-6.129c0.965-0.375,1.93-0.684,2.879-0.934
	c0-3.145,0.215-6.27,1.09-8.852c0.68-2.008,2.047-6.238,3.664-11.355C914.281,562.754,904.648,563.191,897.293,559.016z"/>
<path style="fill:#C6CAD6;" d="M859.016,551.852c-12.488,0.563-26.199,1.824-38.223,5.422c-4.164,1.246-8.52,2.957-12.559,4.539
	c-1.121,0.441-12.188,7.703-11.398,8.16c5,2.879,10.371,5.078,15.922,6.644c-0.313-0.277-0.559-0.586-0.519-0.965
	c0.055-0.508,0.566-0.832,1.031-1.086c8.199-4.449,17.203-7.219,26.387-8.719c9.789-1.606,19.762-1.824,29.656-1.395
	c2.34,0.098,4.676,0.32,7.016,0.488c0.258-4.125,0.52-8.25,0.801-12.371C871.156,551.742,865.035,551.582,859.016,551.852z"/>
<path style="fill:#C6CAD6;" d="M872.637,797.805c0.285,8.152,2.016,16.242,5.047,23.813c0.859-7.574,1.277-14.688,7.394-21.008
	c0.973-1.004,2.078-1.758,3.223-2.445c-1.121,0.289-2.191,0.563-3.043,0.648C881.035,799.227,876.734,798.902,872.637,797.805z"/>
<path style="fill:#C6CAD6;" d="M425.18,616.32c11.094-77.449,82.871-131.242,160.324-120.152
	c77.449,11.098,131.246,82.875,120.152,160.328c-1.567,10.938-4.383,21.383-8.215,31.258c-3.777,23.066-6.418,46.277-0.582,68.652
	c5.875,22.527,19.637,41.547,34.742,59.617c8.008,5.039,16.32,10.09,24.652,15c36.156,21.313,72.465,39.813,83.551,41.328
	c2.242,0.305,4.418,0.238,6.543,0c1.977-0.219,3.902-0.613,5.738-1.262c-1.852-1.363-3.711-2.707-5.543-4.078
	c-31.016-23.168-50.098-60.316-57.367-97.785c-8.766-45.184,8.945-92.34-0.449-136.457c-8.375-39.336-39.203-72.965-67.695-99.445
	c-34.891-32.426-74.258-61.68-98.547-102.652c-21.98-37.082-29.277-82.344-21.262-124.633c-2.91,6.699-5.766,13.84-8.559,21.316
	c-0.309,0.832-0.621,1.656-0.926,2.492c-7.285,19.809-14.121,41.922-20.301,64.773c-6.125,22.633-11.602,45.98-16.25,68.535
	c-0.32,1.543-0.633,3.086-0.945,4.625c-23.836,2.156-46.375,9.902-66.051,22.121c-0.914,0.566-1.813,1.16-2.715,1.746
	c-18.449,12.004-34.234,27.961-46.039,46.887c-0.66,1.058-1.313,2.117-1.949,3.195c-9.754,16.543-16.523,35.211-19.414,55.398
	c-0.102,0.711-0.176,1.418-0.27,2.125c-10.266,0.68-23.957,0.516-35.91,0.242c-8.07-0.184-15.363-0.414-20.242-0.465
	c-2.965,24.672,1.527,97.07,2.148,97.797l79.527,11.391C427.578,681.481,420.434,649.43,425.18,616.32z"/>
<path style="fill:#EBF2E5;" d="M585.504,496.168c-77.453-11.09-149.231,42.703-160.324,120.152
	c-4.746,33.109,2.398,65.16,18.148,91.898c6.422,10.902,14.273,20.914,23.348,29.75c20.738,20.195,47.809,34.258,78.652,38.68
	c46.129,6.606,90.238-9.809,120.719-40.519c13.473-13.578,24.25-29.961,31.395-48.375c3.832-9.875,6.648-20.32,8.215-31.258
	C716.75,579.043,662.953,507.266,585.504,496.168z"/>
<path style="fill:#203A73;" d="M582.93,514.144c-42.492-6.086-83.012,10.238-109.637,39.992
	c5.965,17.43,14.891,33.879,26.094,48.578c4.676-9.152,11.156-17.105,18.922-23.5c15.535-12.789,36.137-19.316,57.625-16.238
	c7.902,1.133,15.309,3.5,22.109,6.832c1.844,0.535,3.668,1.129,5.445,1.848c22.934,9.289,39.035,31.727,44.375,55.891
	c3.871,17.523,2.555,35.77-2.016,53.211c11.93,0.871,23.871,0.41,35.473-1.656c2.938-7.996,5.105-16.406,6.359-25.18
	C697.355,586.394,650.453,523.816,582.93,514.144z"/>
<path style="fill:#1F2A50;" d="M645.848,680.758c4.57-17.441,5.887-35.688,2.016-53.211c-5.34-24.164-21.441-46.602-44.375-55.891
	c-1.777-0.719-3.602-1.313-5.445-1.848c28.109,13.762,45.48,44.461,40.805,77.117c-0.715,4.977-1.918,9.762-3.535,14.324
	c-11.555,32.625-44.836,53.684-80.414,48.59c-40.555-5.809-68.723-43.394-62.914-83.949c1.191-8.32,3.785-16.082,7.402-23.176
	c-11.203-14.699-20.129-31.148-26.094-48.578c-15.688,17.535-26.555,39.723-30.145,64.758
	c-9.672,67.527,37.23,130.106,104.754,139.781c58.754,8.414,113.746-26.012,133.418-79.574
	C669.719,681.168,657.777,681.629,645.848,680.758z"/>
<path style="fill:#EBF2E5;" d="M598.043,569.809c-6.801-3.332-14.207-5.699-22.109-6.832c-21.488-3.078-42.09,3.449-57.625,16.238
	c3.391,9.973,6.867,19.445,11.449,28.523c9.801-12.176,25.555-19.047,42.152-16.668c25.043,3.586,42.434,26.793,38.848,51.832
	c-0.508,3.543-1.449,6.91-2.691,10.106c8.902,3.219,17.906,6.18,27.246,8.242c1.617-4.563,2.82-9.348,3.535-14.324
	C643.523,614.269,626.152,583.57,598.043,569.809z"/>
<path style="fill:#A1A8C3;" d="M889.269,768.441c-0.726-0.012-14.629-1.234-14.629-1.234s8.758,2.149,12.957,2.988
	c2.102,0.422,4.199,0.859,6.297,1.297c1.981,0.414,6.313,1.113,6.473,1.156C899.277,771.242,890.375,768.465,889.269,768.441z"/>
<path style="fill:#C6CAD6;" d="M608.066,653.008c1.242-3.195,2.184-6.563,2.691-10.106c3.586-25.039-13.805-48.246-38.848-51.832
	c-16.598-2.379-32.352,4.492-42.152,16.668c-4.582-9.078-8.059-18.551-11.449-28.523c-7.766,6.395-14.246,14.348-18.922,23.5
	c-3.617,7.094-6.211,14.856-7.402,23.176c-5.809,40.555,22.359,78.141,62.914,83.949c35.578,5.094,68.859-15.965,80.414-48.59
	C625.973,659.188,616.969,656.227,608.066,653.008z"/>
<path style="fill:#EBF2E5;" d="M580.809,672.094c-22.465,3.262-47.773-7.047-55.297-29.516c-0.926-2.766-1.613-5.59-2.098-8.453
	c-0.758-4.492-0.988-9.078-0.918-13.668c-1.113,3.004-1.945,6.156-2.418,9.457c-3.586,25.043,13.805,48.246,38.844,51.832
	c15.902,2.277,31.051-3.926,40.918-15.16C593.664,669.059,587.367,671.137,580.809,672.094z"/>
<path style="fill:#EBF2E5;" d="M940.703,1465.906c-6.699-42.797-17.781-84.914-33.184-125.359
	c-3.754-10.148-8.324-19.973-12.496-29.953c-2.418-5.297-4.914-10.551-7.465-15.777c-13.652-15.988-27.094-31.957-43.359-45.469
	c-16.965-14.094-35.648-26.027-55.066-36.445c-35.527-19.055-75.578-30.332-107.324-55.645c-4.5-2.105-8.988-4.254-13.43-6.477
	c-9.707-4.895-19.273-10.078-28.645-15.598c-9.406-5.414-18.516-11.617-26.738-18.809c-8.227-7.188-15.57-15.473-21.391-24.754
	c-5.879-9.242-10.371-19.285-13.867-29.602c-6.965-20.699-10.531-42.215-14.656-63.484c-3.934-20.668-7.59-41.734-16.832-60.719
	c-0.609-0.348-1.211-0.711-1.82-1.059c-22.453-12.707-54.773-32.02-82.637-37.734c-3.859-0.789-7.633-1.332-11.281-1.547
	c-24.707-1.457-44.098,30.34-57.859,50.32c-3.535,11.285-7.672,22.379-12.539,33.152c-5.793,12.816-16.43,25.769-12.445,40.402
	c5.098,18.719,26.344,17.453,42.121,20.547c19.418,3.809,38.855,8.012,58.672,9.102c22.133,1.219,47.25-0.324,68.328,7.746
	c18.324,7.012,35.789,22.555,49.523,36.16c61.531,59.82,75.238,148.98,98.164,228.043c12.387,42.715,38.707,87.141,61.59,125.426
	c18.266,30.559,37.527,64.125,69.863,81.742c33.684,18.363,75.609,15.945,111.543,2.516c6.832-2.559,13.484-5.5,20.004-8.703
	C945.93,1504.523,943.715,1485.164,940.703,1465.906z"/>
<path style="fill:#C6CAD6;" d="M951.719,1584.34c5.301-2.074,9.383-3.207,11.875-3.141c0.379,0.012,0.824,0.09,1.285,0.188
	c4.242-2.523,8.488-5.051,12.797-7.504c0.027-4.391,0.113-8.785,0.047-13.18c-0.266-17.387-1.316-34.754-3.059-52.047
	c-8.242,5.168-16.684,10.004-25.371,14.355C950.859,1543.418,951.66,1563.879,951.719,1584.34z"/>
<path style="fill:#C6CAD6;" d="M947.477,1523.93c-6.52,3.203-13.172,6.145-20.004,8.703c-35.934,13.43-77.859,15.848-111.543-2.516
	c-32.336-17.617-51.598-51.184-69.863-81.742c-22.883-38.285-49.203-82.711-61.59-125.426
	c-22.926-79.063-36.633-168.223-98.164-228.043c-13.734-13.605-31.199-29.148-49.523-36.16c-21.078-8.07-46.195-6.527-68.328-7.746
	c-19.816-1.09-39.254-5.293-58.672-9.102c-15.777-3.094-37.023-1.828-42.121-20.547c-3.984-14.633,6.652-27.586,12.445-40.402
	c4.867-10.773,9.004-21.867,12.539-33.152c-1.137,1.645-2.246,3.242-3.305,4.703c-63.906,88.277-104.285,185.871-122.199,293.133
	c-5.375,32.195-5.777,66.395-2.723,101.223c0.059-0.031,0.098-0.074,0.156-0.102c8.438-4.031,18.387,0.027,26.563,4.566
	c27.504,15.254,51.105,35.809,73.605,57.895c-5.762-12.363-11.504-24.719-17.211-37.012c-7.301-15.734-14.469-33.469-14.453-50.262
	c-2.496-4.809-4.551-8.68-5.992-11.219c-1.711-3.02-3.086-6.125-4.102-9.305c-11.227-10.602-19.816-24.016-24.383-38.773
	c-5.598-18.078-5.035-38.398,1.055-56.535c3.672,8.43,12.828,13.367,20.535,21.781c1.027,0.449,1.789,0.805,2.07,1
	c6.367,4.406,11.305,10.605,14.355,17.711c5.547,12.922-0.504,24.363-3.246,37c-3.277,15.078,7.953,28.672,14.93,41.703
	c7.871,14.703,78.148,134.438,103.652,177.852c5.98,10.176,15.387,17.863,26.543,21.711c21.965,7.578,55.688,10.074,59.773,8.973
	c5.359-1.441,35.195-30.441,52.621-55.836c5.609-8.184,8.621-17.863,8.648-27.785c0.18-59.84,2.832-120.133,8.656-179.598
	c1.977-20.152,4.106-41.41-4.203-59.879c-4.492-9.984-8.895-15.965-11.281-23.715c-2.449-2.723-4.594-5.559-6.203-8.602
	c-18.188,18.031-31.344,41.141-36.367,66.281c-3.492,17.508-3.352,35.602-6.93,53.094c-3.578,17.492-11.813,35.27-27.231,44.277
	c-12.805,7.488-28.984,7.754-43.059,3.055c-14.07-4.691-26.25-13.898-36.746-24.383c-18.938-18.93-32.953-42.09-48.121-64.16
	c-15.172-22.066-32.191-43.715-55.063-57.648c-9.953-6.063-21.242-10.422-32.781-12.398c0.172-0.504,0.27-0.953,0.465-1.473
	c9.141-24.734,24.543-48.063,44.793-67.609c2.859-2.762,6.293-5.652,10.387-5.809c3.086-0.113,5.676,1.359,7.973,3.121
	c3.871-3.492,7.875-6.828,12.149-9.816c26.726-18.684,60.648-26.789,92.934-22.199c6.453,0.918,12.926,2.434,19.09,4.645
	c0.461-1.402,0.922-2.801,1.41-4.191c1.207-3.41,2.715-7.168,6.242-9.035c3.621-1.914,8.043-1.129,11.895-0.168
	c27.316,6.797,52.32,19.289,72.609,36.137c8.395,6.969,11.246,13.094,11.492,19.148c12.285,13.391,20.484,30.551,22.754,48.602
	c1.258,9.988,0.602,20.164-1.598,29.988c1.258,1.727,2.383,3.5,3.266,5.367c2.074,4.363,3.293,9.035,3.801,13.918
	c0.066,0.141,0.141,0.266,0.207,0.402c3.008,6.109,5.59,12.488,7.992,18.688c2.004,5.184,3.926,10.398,5.914,15.586
	c41.199,107.445,79.019,216.18,113.394,325.996c4.402,0.52,8.801,1.117,13.211,1.574c36.512,3.797,73.266,5.609,109.973,4.523
	c26.934-0.797,53.152-5.801,79.531-9.328C949.949,1564.355,949.09,1544.109,947.477,1523.93z"/>
<path style="fill:#C6CAD6;" d="M864.359,1253.527c-6.082-8.895-12.59-17.504-19.945-25.34c-7.418-7.758-15.445-14.953-24.379-20.891
	c-9.02-5.754-18.629-10.66-28.879-13.84c-10.184-3.086-20.992-4.855-31.539-7.645c-10.539-2.754-20.938-5.992-31.219-9.551
	c-15.855-5.504-31.387-11.91-46.59-19.004c31.746,25.313,134.75,179.273,170.277,198.332
	c19.418,10.414-24.852-120.336-7.887-106.242c16.266,13.512,29.707,29.48,43.359,45.469c-2.195-4.496-4.43-8.973-6.738-13.41
	C875.719,1271.879,870.332,1262.508,864.359,1253.527z"/>
<path style="fill:#EBF2E5;" d="M942.629,1364.543c-19.895-56.805-49.152-133.449-98.09-171.727
	c-0.707-0.547-1.461-1.012-2.191-1.516c-10.785-7.461-24.246-10.156-37.137-13.039c-0.578-0.129-1.148-0.281-1.727-0.41
	c-20.391-4.633-40.516-10.445-60.23-17.43c-15.875-5.625-31.488-12-46.766-19.09c-35.336-16.406-58.563-32.523-86.769-58.918
	c-3.383-3.172-6.121-6.496-8.379-9.945c-19.859-30.336-0.625-70.625-19.879-103.793c-7.695-13.258-20.676-22.402-33.996-30.152
	c9.164,18.746,13.035,39.481,17.137,59.715c4.266,21.254,7.887,42.727,14.879,63.184c6.824,20.43,18.387,39.449,34.906,53.367
	c8.141,7.051,17.07,13.086,26.484,18.457c9.348,5.453,18.887,10.574,28.57,15.406c19.394,9.602,39.355,18.098,59.824,25.105
	c8.418,2.879,16.93,5.461,25.504,7.813c1.848,0.504,3.684,1.074,5.539,1.555c3.391,0.879,6.813,1.648,10.246,2.395
	c7.133,1.563,14.324,3.031,21.477,5.16c10.523,3.219,20.41,8.207,29.68,14.07c9.188,6.051,17.426,13.379,25.023,21.262
	c14.934,16.09,26.566,34.785,36.676,54.031c4.984,9.684,9.68,19.496,14.152,29.395c4.156,10.047,8.711,19.941,12.438,30.16
	c15.313,40.707,26.258,83.027,32.793,125.988c2.894,19.055,5.023,38.219,6.5,57.426c8.687-4.351,17.129-9.188,25.371-14.355
	C969.715,1459.578,958.93,1411.094,942.629,1364.543z"/>
<path style="fill:#A1A8C3;" d="M438.551,1660.563c21.512,1.93,43.09,3.969,64.211,8.012c-14.547-24.738-29.102-49.48-43.648-74.219
	c-0.117-0.207-0.238-0.414-0.359-0.621c-34.672-59-64.855-121.977-94.004-184.52c-22.5-22.086-46.102-42.641-73.605-57.895
	c-8.176-4.539-18.125-8.598-26.563-4.566c-0.059,0.027-0.098,0.07-0.156,0.102c7.293,83.098,34.402,169.785,61.555,241.422
	c6.516,17.18,13.914,34.785,27.457,47.203c6.996,6.414,15.125,10.996,23.879,14.371c15.75,6.074,33.539,8.199,50.551,9.754
	C431.426,1659.926,434.988,1660.246,438.551,1660.563z"/>
<path style="fill:#A1A8C3;" d="M950.102,1585c0-0.125,0-0.258,0-0.391c-26.379,3.527-52.598,8.531-79.531,9.328
	c-36.707,1.086-73.461-0.727-109.973-4.523c-4.41-0.457-8.809-1.055-13.211-1.574c10.32,32.977,20.32,66.055,30.016,99.227
	C835.992,1648.426,916.109,1598.863,950.102,1585z"/>
<path style="fill:#203A73;" d="M951.719,1584.34c-0.059-20.461-0.859-40.922-2.426-61.328c-1.477-19.207-3.606-38.371-6.5-57.426
	c-6.535-42.961-17.481-85.281-32.793-125.988c-3.727-10.219-8.281-20.113-12.438-30.16c-4.473-9.898-9.168-19.711-14.152-29.395
	c-10.109-19.246-21.742-37.941-36.676-54.031c-7.598-7.883-15.836-15.211-25.023-21.262c-9.269-5.863-19.156-10.852-29.68-14.07
	c-7.152-2.129-14.344-3.598-21.477-5.16c-3.434-0.746-6.856-1.516-10.246-2.395c-1.856-0.48-3.691-1.051-5.539-1.555
	c-8.574-2.352-17.086-4.934-25.504-7.813c-20.469-7.008-40.43-15.504-59.824-25.105c-9.684-4.832-19.223-9.953-28.57-15.406
	c-9.414-5.371-18.344-11.406-26.484-18.457c-16.519-13.918-28.082-32.938-34.906-53.367c-6.992-20.457-10.613-41.93-14.879-63.184
	c-4.102-20.234-7.973-40.969-17.137-59.715c-0.402-0.238-0.808-0.477-1.215-0.707c9.242,18.984,12.898,40.051,16.832,60.719
	c4.125,21.269,7.691,42.785,14.656,63.484c3.496,10.316,7.988,20.359,13.867,29.602c5.82,9.281,13.164,17.566,21.391,24.754
	c8.223,7.191,17.332,13.395,26.738,18.809c9.371,5.52,18.938,10.703,28.645,15.598c4.441,2.223,8.93,4.371,13.43,6.477
	c15.203,7.094,30.734,13.5,46.59,19.004c10.281,3.559,20.68,6.797,31.219,9.551c10.547,2.789,21.355,4.559,31.539,7.645
	c10.25,3.18,19.859,8.086,28.879,13.84c8.934,5.938,16.961,13.133,24.379,20.891c7.355,7.836,13.863,16.445,19.945,25.34
	c5.973,8.98,11.359,18.352,16.461,27.879c2.309,4.438,4.543,8.914,6.738,13.41c2.551,5.227,5.047,10.48,7.465,15.777
	c4.172,9.98,8.742,19.805,12.496,29.953c15.402,40.445,26.484,82.563,33.184,125.359c3.012,19.258,5.227,38.617,6.773,58.023
	c1.613,20.18,2.473,40.426,2.625,60.68c0,0.133,0,0.266,0,0.391C950.633,1584.789,951.207,1584.535,951.719,1584.34z"/>
<path style="fill:#203A73;" d="M441.707,1152.398c33.789-10.125,37.582-38.359,46.301-64.996c-6.164-2.211-12.637-3.727-19.09-4.645
	c-32.285-4.59-66.207,3.516-92.934,22.199c-4.274,2.988-8.277,6.324-12.149,9.816c0.672,0.516,1.324,1.055,1.953,1.586
	C388.203,1135.516,405.582,1160.961,441.707,1152.398z"/>
<path style="fill:#1F2A50;" d="M321.16,1292.313c-1.461-18.055,14.832-39.156,5.164-56.156c-1.801-3.172-3.91-5.844-6.125-8.266
	c-7.707-8.414-16.863-13.352-20.535-21.781c-6.09,18.137-6.652,38.457-1.055,56.535c4.566,14.758,13.156,28.172,24.383,38.773
	C322.051,1298.445,321.41,1295.414,321.16,1292.313z"/>
<path style="fill:#203A73;" d="M612.813,1207.883c2.199-9.824,2.856-20,1.598-29.988c-2.27-18.051-10.469-35.211-22.754-48.602
	c0.453,11.254-8.246,22.25-8.141,37.914c0.027,4.113,1.188,7.793,3,11.219c1.609,3.043,3.754,5.879,6.203,8.602
	C599.117,1194.125,607.398,1200.484,612.813,1207.883z"/>
<path style="fill:#203A73;" d="M642.84,1385.059c3.703,31.602,7.442,63.203,11.086,94.809c3.918,33.945-15.297,51.875-24.215,83.68
	c-8.453,30.141-1.824,62.52,8.867,91.941c12.766,35.141,27.699,69.281,43.023,103.219c10.629-10.301,22.27-19.555,32.746-27.887
	c10.051-8.004,33.895-24.523,63.055-43.754c-9.695-33.172-19.695-66.25-30.016-99.227
	c-34.375-109.816-72.195-218.551-113.394-325.996c1.32,12.336,2.566,24.672,3.656,37.027
	C640.215,1327.695,639.473,1356.285,642.84,1385.059z"/>
<path style="fill:#20325F;" d="M647.398,1816.207c0.426-2.07,0.773-4.156,1.25-6.211c4.559-19.605,17.715-36.531,32.953-51.289
	c-15.324-33.938-30.258-68.078-43.023-103.219c-10.691-29.422-17.32-61.801-8.867-91.941c8.918-31.805,28.133-49.734,24.215-83.68
	c-3.644-31.605-7.383-63.207-11.086-94.809c-3.367-28.773-2.625-57.363-5.191-86.188c-1.09-12.355-2.336-24.691-3.656-37.027
	c-1.988-5.188-3.91-10.402-5.914-15.586c-2.402-6.199-4.984-12.578-7.992-18.688c-0.066-0.137-0.141-0.262-0.207-0.402
	c0.168,1.641,0.258,3.305,0.269,4.992c0.246,33.309,12.484,243-6.164,278.117c-4.102,26.707-12.461,52.824-21.547,78.367
	c-4.668,13.117-10.664,27.43-23.313,33.25c-8.598,3.957-18.578,3.082-27.922,1.586c-28.832-4.625-56.726-14.66-82.09-29.125
	c14.547,24.738,29.102,49.48,43.648,74.219c17.988,30.59,35.973,61.184,53.965,91.773c15.176,25.793,29.934,51.898,45.895,77.223
	c6.23,9.883,25.418,38.789,40.32,58.426C640.625,1869.34,642.012,1842.277,647.398,1816.207z"/>
<path style="fill:#1F2A50;" d="M569.125,1621.895c12.648-5.82,18.644-20.133,23.313-33.25c9.086-25.543,17.445-51.66,21.547-78.367
	c-0.629,1.184-1.289,2.184-1.988,2.957c-11.121,12.297-22.523,29.004-38.406,41.492c-13.156,10.344-30.617,15.027-47.188,12.648
	c-19.996-2.867-39.828-8.852-55.609-13.938c-27.891-8.988-110.801-179.645-137.707-231.496
	c-0.016,16.793,7.152,34.527,14.453,50.262c5.707,12.293,11.449,24.648,17.211,37.012c29.148,62.543,59.332,125.52,94.004,184.52
	c0.121,0.207,0.242,0.414,0.359,0.621c25.363,14.465,53.258,24.5,82.09,29.125C550.547,1624.977,560.527,1625.852,569.125,1621.895z
	"/>
<path style="fill:#203A73;" d="M1013.66,1612.297c9.535-4.566,19.062-9.125,28.59-13.684c26.121-12.508,57.715-22.938,80.906-41.109
	c-0.988-2.117-1.965-4.309-2.926-6.563c-5.965-13.992-10.887-30.086-9.004-42.535c-45.227,20.043-90.875,41.164-133.551,65.477
	c-4.309,2.453-8.555,4.98-12.797,7.504C972.863,1583.027,992.965,1597.012,1013.66,1612.297z"/>
<path style="fill:#20325F;" d="M1064.535,1649.996c26.277-19.328,53.199-37.766,80.707-55.297
	c-5.453-7.109-10.398-14.613-14.668-22.496c-2.18-4.027-4.801-9.09-7.418-14.699c-23.191,18.172-54.785,28.602-80.906,41.109
	c-9.527,4.559-19.055,9.117-28.59,13.684C1033.504,1626.949,1053.832,1642.742,1064.535,1649.996z"/>
<path style="fill:#1F2A50;" d="M1159.031,1610.586c-4.941-4.984-9.516-10.32-13.789-15.887
	c-27.508,17.531-54.43,35.969-80.707,55.297c1.996,1.352,3.688,2.441,4.941,3.129c15.848,8.75,35.09,7.953,52.73,9.566
	c0.293,0.031,0.59,0.074,0.883,0.098c12.188-10.773,24.117-21.848,35.734-33.242c2.695-2.648,5.371-5.309,8.035-7.984
	c0.539-0.547,1.129-1.098,1.719-1.66c-3.215-2.895-6.262-6-9.125-8.867C1159.309,1610.891,1159.176,1610.734,1159.031,1610.586z"/>
<path style="fill:#1F2A50;" d="M1462.613,1497.715c20.191-2.168,40.949-1.668,60.242-8.004
	c10.332-3.395,17.328-11.285,23.777-20.098c-1.082-1.176-1.938-2.426-1.793-3.43c0.297-2.102,4.598-5.477,6.035-7.004
	c4.48-4.773,17.434-19.883,22.5-24.035c7.09-5.797,15.023-11.426,23.453-16.047c-14.227,3.433-28.652,8.969-40.027,17.176
	c-8.434,6.086-15.43,13.324-22.512,20.547c-4.422,4.512-8.875,9.012-13.742,13.23c-9.238,8.012-20.871,12.656-32.383,16.773
	c-14.492,5.191-29.211,9.711-44.078,13.68c0.336,0.047,0.664,0.105,0.996,0.164
	C1450.875,1499.313,1456.781,1498.336,1462.613,1497.715z"/>
<path style="fill:#20325F;" d="M1567.957,1489.297c0.215-0.363,0.789-0.797,1.551-1.262c-3.703-2.738-7.445-5.426-11.035-8.305
	c-2.813-2.258-5.578-4.551-8.32-6.887c-0.789-0.676-2.301-1.91-3.52-3.23c-6.449,8.813-13.445,16.703-23.777,20.098
	c-19.293,6.336-40.051,5.836-60.242,8.004c-5.832,0.621-11.738,1.598-17.531,2.953c0.457,0.082,0.918,0.125,1.375,0.23
	c5.164,1.145,10.164,4.379,14.672,7.641c5.285-0.691,10.613-1.051,15.863-1.168c20.301-0.449,40.945,1.793,60.699-2.898
	c10.719-2.543,20.469-7.336,30.164-12.207C1567.793,1490.637,1567.809,1489.539,1567.957,1489.297z"/>
<path style="fill:#C6CAD6;" d="M1550.875,1459.18c-1.438,1.527-5.738,4.902-6.035,7.004c-0.145,1.004,0.711,2.254,1.793,3.43
	c1.219,1.32,2.73,2.555,3.52,3.23c2.742,2.336,5.508,4.629,8.32,6.887c3.59,2.879,7.332,5.566,11.035,8.305
	c6.574-4.051,31.5-11.555,39.926-14.109c0.535-0.16,1.074-0.305,1.609-0.469c7.754-8.344,15.75-16.992,17.832-19.262
	c5.246-5.699,10.121-11.738,14.586-18.066c2.383-3.367,5.586-7.703,6.273-12.129c0.168-1.078,0.145-2.164-0.043-3.242
	c-0.047-0.289-0.047-0.586-0.125-0.879c-0.75-2.715-2.918-4.813-5.234-6.41c-4.609-3.164-10.211-4.75-15.781-4.73
	c-2.23,0-4.523,0.293-6.813,0.77c-8.566,1.777-16.961,5.234-24.91,9.59c-8.43,4.621-16.363,10.25-23.453,16.047
	C1568.309,1439.297,1555.355,1454.406,1550.875,1459.18z"/>
<path style="fill:#1F2A50;" d="M1575.148,1538.887c-1.383-1.676-3.109-10.82-4.535-20.809c-0.418-2.922-0.809-5.906-1.16-8.805
	c-2.91,14.672-19.941,21.262-33.719,24.148c-8.148,1.711-18.184,4.473-26.262,2.578c-11.699-2.754-23.457-7.863-34.707-12.828
	c1.43,2.477,2.773,5.004,4.02,7.523c1.637,3.305,3.117,6.605,4.309,9.949c0.438,0.262,0.898,0.508,1.328,0.777
	c2.781,1.715,4.723,4.559,5.133,7.805c1.133,8.941-2.391,17.859-8.391,25.25c3.918-0.879,7.758-1.844,11.453-2.824
	c-0.613-2.887,0.328-6.133,2.16-8.539c2.367-3.117,5.863-5.133,9.258-7.066c6.93-3.945,13.859-7.891,20.785-11.836
	c8.422-4.797,17.23-9.707,26.914-10.316c4.992-0.309,10.359,0.766,14.688,3.34c1.715,1.023,7.168,5.254,8.516,8.313
	c2.055-0.859,4.086-1.77,6.129-2.668C1579.051,1542.414,1577.09,1541.246,1575.148,1538.887z"/>
<path style="fill:#203A73;" d="M1333.328,1507.484c2.977,0.469,5.895,0.328,9.406-1.098c5.723-2.32,10.738-6.258,16.637-8.082
	c8.125-2.512,16.879-0.727,25.191,1.066c9.496,2.051,18.992,4.098,28.496,6.148c8.328,1.805,17.242,2.789,24.777,7.023
	c8.98,5.039,17.957,10.09,26.93,15.129c5.148,2.891,10.359,5.836,14.57,9.977c0.516,0.504,0.945,1.086,1.422,1.625
	c0.773,0.461,1.57,0.902,2.336,1.371c-1.191-3.344-2.672-6.645-4.309-9.949c-1.246-2.52-2.59-5.047-4.02-7.523
	c11.25,4.965,23.008,10.074,34.707,12.828c8.078,1.895,18.113-0.867,26.262-2.578c13.777-2.887,30.809-9.477,33.719-24.148
	c-0.848-7.004-1.453-13.414-1.598-17.008c-9.695,4.871-19.445,9.664-30.164,12.207c-19.754,4.691-40.398,2.449-60.699,2.898
	c-5.25,0.117-10.578,0.477-15.863,1.168c-4.508-3.262-9.508-6.496-14.672-7.641c-0.457-0.105-0.918-0.148-1.375-0.23
	c-0.332-0.059-0.66-0.117-0.996-0.164c-4.512-0.688-9.129-0.637-13.707-0.684c-12.023-0.133-24.035-1.379-35.836-3.707
	c-5.668-1.121-11.566-3.574-17.27-4.172c-4.922-0.516-10.055,0.211-15.063-0.434c-8.359-1.078-16.613-2.688-24.801-4.629
	C1336.371,1494.004,1335.18,1500.887,1333.328,1507.484z"/>
<path style="fill:#1F2A50;" d="M1438.031,1518.852c14.984,5.371,29.41,12.484,42.727,20.422c-0.477-0.539-0.906-1.121-1.422-1.625
	c-4.211-4.141-9.422-7.086-14.57-9.977c-8.973-5.039-17.949-10.09-26.93-15.129c-7.535-4.234-16.449-5.219-24.777-7.023
	c-9.504-2.051-19-4.098-28.496-6.148c-8.313-1.793-17.066-3.578-25.191-1.066c-5.898,1.824-10.914,5.762-16.637,8.082
	c-3.512,1.426-6.43,1.566-9.406,1.098c-3.016,10.75-7.809,20.715-16.746,29.602c-4.859,4.84-10.535,8.879-16.648,12.063
	c7.668-3.309,14.816-7.816,21.617-12.648c9.176-6.52,17.012-15.348,26.777-20.891c2.883-1.637,5.914-2.926,9.035-3.938
	c9.477-3.07,19.852-3.57,29.895-3.219c14.441,0.5,29.063,3.473,43.344,7.992C1433.086,1517.227,1435.57,1517.969,1438.031,1518.852z
	"/>
<path style="fill:#EBF2E5;" d="M1120.23,1550.941c8.109,3.613,18.66,0.789,25.203-5.578c2.73-2.664,5.492-6.195,7.395-9.508
	c2.309-4.031,0.75-8.516,0.414-12.891c-0.387-5.297-0.516-10.605-0.367-15.906c0.191-7.008,0.902-13.996,2.031-20.91
	c0.113-4.473,0.473-8.93,1.098-13.352c-9.723,5.852-19.289,11.988-29.34,17.262c-5.438,2.855-11.254,6.109-13.672,11.746
	c-0.875,2.035-1.41,4.27-1.766,6.602C1109.344,1520.855,1114.266,1536.949,1120.23,1550.941z"/>
<path style="fill:#EBF2E5;" d="M1569.508,1488.035c-0.762,0.465-1.336,0.898-1.551,1.262c-0.148,0.242-0.164,1.34-0.102,2.969
	c0.145,3.594,0.75,10.004,1.598,17.008c0.352,2.898,0.742,5.883,1.16,8.805c1.891-1.172,4.004-2.117,6.008-2.887
	c21.523-8.238,43.426-15.465,65.609-21.727c14.539-4.102,29.273-8.547,44.117-11.926c-0.355-1.691-0.992-3.367-2.164-4.93
	c-0.457-0.621-0.988-1.223-1.59-1.805c-11.023-10.648-28.66-10.07-42.73-8.008c-9.77,1.438-19.359,3.852-28.82,6.66
	c-0.535,0.164-1.074,0.309-1.609,0.469C1601.008,1476.48,1576.082,1483.984,1569.508,1488.035z"/>
<path style="fill:#C6CAD6;" d="M1566.422,1537.234c-4.328-2.574-9.695-3.648-14.688-3.34c-9.684,0.609-18.492,5.52-26.914,10.316
	c-6.926,3.945-13.855,7.891-20.785,11.836c-3.395,1.934-6.891,3.949-9.258,7.066c-1.832,2.406-2.773,5.652-2.16,8.539
	c0.176,0.84,0.445,1.664,0.918,2.41c16.012-4.152,31.93-8.656,47.738-13.527c10.848-3.34,21.297-6.922,31.711-11.418
	c0.855-0.371,1.781-0.809,2.18-1.648c0.25-0.531,0.09-1.207-0.227-1.922C1573.59,1542.488,1568.137,1538.258,1566.422,1537.234z"/>
<path style="fill:#EBF2E5;" d="M1267.078,1451.336c0.199-0.148,0.344-0.297,0.555-0.445c8.32-5.734,17.18-9.027,24.758-16.07
	c7.766-7.227,14.316-15.637,21.859-23.07c3.184-3.137,6.664-6.125,10.809-7.758c-0.07-0.094-0.129-0.195-0.199-0.297
	c-4.004-5.762-12.285-12.645-20.23-13.727c-1.535-0.207-3.055-0.277-4.531,0c-11.918,2.242-22.184,17.551-30.98,25.102
	c-6.016,5.168-11.707,12.02-11.457,19.957c0.02,0.801,0.191,1.563,0.328,2.332
	C1258.965,1442.855,1262.598,1447.43,1267.078,1451.336z"/>
<path style="fill:#EBF2E5;" d="M1341.52,1397.758c1.418,1.516,2.918,2.953,4.465,4.336c0.355-2.316,1.703-4.555,4.586-6.558
	c7.715-5.356,20.488-7.031,29.254-10.863c10.035-4.391,19.75-9.516,29.035-15.328c8.172-5.113,16-10.77,23.434-16.898
	c-0.262-0.844-0.539-1.68-0.867-2.512c-1.715-4.316-4.996-8.262-9.449-9.605c-5.027-1.512-10.371,0.5-15.234,2.484
	c-1.707,0.691-3.41,1.387-5.109,2.082c-13.133,5.344-26.242,10.781-39.414,16.043c-11.809,4.715-23.426,7.508-34.352,14.672
	c-0.34,0.223-0.313,0.816-0.059,1.633c0.762,2.488,3.848,7.25,6.934,11.598C1337.805,1393.148,1340.836,1397.027,1341.52,1397.758z"
	/>
<path style="fill:#EBF2E5;" d="M1136.969,1667.824c-3.418-3.703-8.805-4.539-13.879-5.035c-0.293-0.023-0.59-0.066-0.883-0.098
	c-17.641-1.613-36.883-0.816-52.73-9.566c-1.254-0.688-2.945-1.777-4.941-3.129c-10.703-7.254-31.031-23.047-50.875-37.699
	c-20.695-15.285-40.797-29.27-48.781-30.91c-0.461-0.098-0.906-0.176-1.285-0.188c-2.492-0.066-6.574,1.066-11.875,3.141
	c-0.512,0.195-1.086,0.449-1.617,0.66c-33.992,13.863-114.109,63.426-172.699,102.066c-29.16,19.23-53.004,35.75-63.055,43.754
	c-10.477,8.332-22.117,17.586-32.746,27.887c-15.238,14.758-28.395,31.684-32.953,51.289c-0.477,2.055-0.824,4.141-1.25,6.211
	c103.785-21.02,198.93-73.453,291.766-125.16c30.141-16.789,62.652-34.121,97.016-31.082c22.652,2.004,43.516,12.742,65.543,18.379
	c10.48,2.68,25.098,1.742,35.184,7.309c1.41-1.617,2.289-2.879,2.535-3.715C1140.836,1677.141,1140.363,1671.492,1136.969,1667.824z
	"/>
<path style="fill:#C6CAD6;" d="M1059.898,1698.449c-6.641-0.461-13.215-0.113-19.82-0.211c-6.574,0.496-13.172,1.027-19.695,1.992
	c-26.117,4.18-51.129,13.605-74.809,25.328c-23.715,11.781-46.164,25.977-68.449,40.355c-22.348,14.273-44.566,28.973-67.555,42.281
	c-11.293,6.816-22.141,14.457-31.648,23.59c-5.918,5.645-11.301,11.832-16.168,18.41c-4.992,9.082-8.895,18.762-11.492,28.793
	c-2.426,9.371-8.098,26.805-0.328,34.508c8.457,8.379,16.719,3.363,26.016,0.527c11.106-3.391,21.852-7.863,32.285-12.938
	c20.836-10.145,40.383-22.68,60-34.949c37.152-23.219,75.027-45.273,113.551-66.141c10.992-5.949,22.039-11.781,33.133-17.539
	c42.816-31.449,81.473-61.059,104.008-80.145c-6.438-0.422-12.867-0.863-19.305-1.289
	C1086.383,1700.082,1073.141,1699.129,1059.898,1698.449z"/>
<path style="fill:#C6CAD6;" d="M1101.723,1678.344c-22.027-5.637-42.891-16.375-65.543-18.379
	c-34.363-3.039-66.875,14.293-97.016,31.082c-92.836,51.707-187.98,104.141-291.766,125.16c-5.387,26.07-6.773,53.133-4.457,79.789
	c0.07,0.836,0.117,1.68,0.199,2.523c20.09,8.621,40.68,16.082,62.242,19.813c4.902,0.848,16.59,4.422,21.195,1.984
	c1.07-0.563,2.012-1.73,2.859-3.203c1.961-6.336,3.93-12.672,6.023-18.988c4.231-12.625,9.469-24.969,16.176-36.543
	c6.617-11.621,15.023-22.215,24.641-31.516c9.602-9.344,20.555-17.168,31.922-24.137c22.895-13.457,44.902-28.227,67.207-42.691
	c22.398-14.27,45.039-28.359,68.992-40.059c23.918-11.645,49.23-21,75.668-25.043c6.602-0.934,13.289-1.426,19.93-1.883
	c6.668,0.137,13.379-0.16,20,0.344c13.262,0.785,26.508,1.797,39.746,2.867c6.82,0.59,13.637,1.184,20.457,1.766
	c7.875-6.711,13.617-12.027,16.707-15.578C1126.82,1680.086,1112.203,1681.023,1101.723,1678.344z"/>
<path style="fill:#A1A8C3;" d="M981.785,1799.996c-38.523,20.867-76.398,42.922-113.551,66.141
	c-19.617,12.27-39.164,24.805-60,34.949c-10.434,5.074-21.18,9.547-32.285,12.938c-9.297,2.836-17.559,7.852-26.016-0.527
	c-7.77-7.703-2.098-25.137,0.328-34.508c2.598-10.031,6.5-19.711,11.492-28.793c-2.969,4.008-5.789,8.125-8.293,12.453
	c-1.613,2.742-3.129,5.531-4.582,8.352c-2.977,5.785-5.629,11.742-8.016,17.809c-1.289,3.277-2.512,6.582-3.652,9.918
	c-4.273,12.523-8.012,25.297-12.273,37.879c-3.824,11.172-7.938,22.348-12.68,33.219c8.832-3.715,17.586-7.656,26.273-11.793
	c18.379-8.75,36.48-18.242,54.43-27.789c7.219-3.84,14.418-7.684,21.598-11.484c4.832-2.555,10.781-5.996,17.621-10.16
	c41.691-25.367,117.063-77.891,182.738-126.141C1003.824,1788.215,992.777,1794.047,981.785,1799.996z"/>
<path style="fill:#A1A8C3;" d="M723.465,1936.117c2.063-6.309,4.016-12.656,5.973-19.004c-0.848,1.473-1.789,2.641-2.859,3.203
	c-4.605,2.438-16.293-1.137-21.195-1.984c-21.563-3.73-42.152-11.191-62.242-19.813c1.063,11.105,2.707,22.137,5.027,32.961
	c2.742,12.813,7.109,26.578,16.086,36.477c11.973,13.191,25.844,10.934,41.234,4.719c1.891-0.766,3.762-1.59,5.648-2.375
	C715.797,1959.113,719.773,1947.617,723.465,1936.117z"/>
<path style="fill:#203A73;" d="M1059.996,1696.598c-6.621-0.504-13.332-0.207-20-0.344c-6.641,0.457-13.328,0.949-19.93,1.883
	c-26.438,4.043-51.75,13.398-75.668,25.043c-23.953,11.699-46.594,25.789-68.992,40.059c-22.305,14.465-44.313,29.234-67.207,42.691
	c-11.367,6.969-22.32,14.793-31.922,24.137c-9.617,9.301-18.023,19.895-24.641,31.516c-6.707,11.574-11.945,23.918-16.176,36.543
	c-2.094,6.316-4.063,12.652-6.023,18.988c-1.957,6.348-3.91,12.695-5.973,19.004c-3.691,11.5-7.668,22.996-12.328,34.184
	c0.371-0.16,0.746-0.32,1.121-0.477c4.742-10.871,8.855-22.047,12.68-33.219c4.262-12.582,8-25.355,12.273-37.879
	c1.141-3.336,2.363-6.641,3.652-9.918c2.387-6.066,5.039-12.023,8.016-17.809c1.453-2.82,2.969-5.609,4.582-8.352
	c2.504-4.328,5.324-8.445,8.293-12.453c4.867-6.578,10.25-12.766,16.168-18.41c9.508-9.133,20.355-16.773,31.648-23.59
	c22.988-13.309,45.207-28.008,67.555-42.281c22.285-14.379,44.734-28.574,68.449-40.355c23.68-11.723,48.691-21.148,74.809-25.328
	c6.523-0.965,13.121-1.496,19.695-1.992c6.605,0.098,13.18-0.25,19.82,0.211c13.242,0.68,26.484,1.633,39.723,2.574
	c6.438,0.426,12.867,0.867,19.305,1.289c0.418-0.359,0.859-0.73,1.273-1.082c-6.82-0.582-13.637-1.176-20.457-1.766
	C1086.504,1698.395,1073.258,1697.383,1059.996,1696.598z"/>
<path style="fill:#C6CAD6;" d="M1267.984,1605.035c11.648,0.066,23.387-0.258,35.027,0.211c8.844,0.355,14.305,1.883,22.844-1.539
	c13.758-5.504,27.773-10.375,42.047-14.332c12.871-3.563,26.766-4.957,40.113-5.422c11.004-0.387,21.043,1.906,31.691,2.109
	c8.898,0.168,18.09-0.961,26.234-4.727c8.66-4,11.172-9.305,14.359-18.148c1.648-4.566,2.238-9.973-0.441-14.02
	c-1.746-2.641-4.617-4.289-7.379-5.844c-7.715-4.34-14.617-7.68-21.5-13.281c-4.434-3.594-8.727-7.352-12.949-11.191
	c-2.461-0.883-4.945-1.625-7.43-2.406c-1.789,7.82-1.59,17.129-7.141,23.762c-9.566,11.445-24.535,16.91-39.18,19.734
	c-14.648,2.84-29.738,3.551-44.023,7.859c-15.77,4.762-29.945,13.727-45.398,19.438c-15.449,5.711-33.711,7.785-47.691-0.926
	c-13.777-8.582-19.934-21.039-27.043-34.953c-4.477-8.762-11.883-17.535-21.711-17.801c-3.867-0.105-7.633,1.152-11.48,1.512
	c-7.906,0.727-17.703-2.992-23.277-9.172c1.992,6.199,4.289,12.297,7.168,18.137c7.273,15.336,17.375,29.226,28.945,41.699
	c3.98,4.262,8.203,8.301,12.52,12.246c1.223,0.906,2.168,1.598,2.523,1.809C1229.23,1608.57,1251.922,1604.934,1267.984,1605.035z"
	/>
<path style="fill:#C6CAD6;" d="M1145.242,1594.699c4.273,5.566,8.848,10.902,13.789,15.887c0.676,0.324,1.305,0.727,2.016,0.98
	c7.758,2.777,16.59,0.598,23.57-3.785c6.809-4.273,12.184-10.43,17.422-16.539c-1.336-1.281-2.73-2.504-4.031-3.824
	c-12.109-12.273-22.383-26.457-30.047-41.992c-7.434-15.648-12.082-32.68-12.984-49.973c-0.152-3.102-0.148-6.203-0.07-9.305
	c-1.129,6.914-1.84,13.902-2.031,20.91c-0.148,5.301-0.02,10.609,0.367,15.906c0.336,4.375,1.895,8.859-0.414,12.891
	c-1.902,3.313-4.664,6.844-7.395,9.508c-6.543,6.367-17.094,9.191-25.203,5.578c0.961,2.254,1.938,4.445,2.926,6.563
	c2.617,5.609,5.238,10.672,7.418,14.699C1134.844,1580.086,1139.789,1587.59,1145.242,1594.699z"/>
<path style="fill:#A1A8C3;" d="M1202.039,1591.242c-5.238,6.109-10.613,12.266-17.422,16.539c-6.98,4.383-15.813,6.563-23.57,3.785
	c-0.711-0.254-1.34-0.656-2.016-0.98c0.145,0.148,0.277,0.305,0.422,0.449c2.863,2.867,5.91,5.973,9.125,8.867
	c3.184,2.871,6.531,5.551,10.016,7.59c9.023,5.305,12.09,2.145,21.117-2.957c9.297-5.262,19.375-9.93,29.836-11.336
	C1219.77,1606.727,1210.543,1599.391,1202.039,1591.242z"/>
<path style="fill:#A1A8C3;" d="M1489.555,1549.227c-0.41-3.246-2.352-6.09-5.133-7.805c-0.43-0.27-0.891-0.516-1.328-0.777
	c-0.766-0.469-1.563-0.91-2.336-1.371c-13.316-7.938-27.742-15.051-42.727-20.422c4.223,3.84,8.516,7.598,12.949,11.191
	c6.883,5.602,13.785,8.941,21.5,13.281c2.762,1.555,5.633,3.203,7.379,5.844c2.68,4.047,2.09,9.453,0.441,14.02
	c-3.188,8.844-5.699,14.148-14.359,18.148c-8.145,3.766-17.336,4.895-26.234,4.727c-10.648-0.203-20.688-2.496-31.691-2.109
	c-13.348,0.465-27.242,1.859-40.113,5.422c-14.273,3.957-28.289,8.828-42.047,14.332c-8.539,3.422-14,1.895-22.844,1.539
	c-11.641-0.469-23.379-0.145-35.027-0.211c-16.063-0.102-38.754,3.535-53.172-5.246c-0.355-0.211-1.301-0.902-2.523-1.809
	c5.844,5.328,11.945,10.383,18.305,15.133c3.105-0.348,6.246-0.449,9.402-0.141c16.496,1.617,32.105,7.394,48.906,7.269
	c38.496-0.297,74.645-18.73,112.914-22.938c19.656-2.156,40.117-0.629,58.586-7.695c7.926-3.031,15.348-8.461,20.762-15.133
	C1487.164,1567.086,1490.688,1558.168,1489.555,1549.227z"/>
<path style="fill:#203A73;" d="M1154.906,1486.148c-0.078,3.102-0.082,6.203,0.07,9.305c0.902,17.293,5.551,34.324,12.984,49.973
	c7.664,15.535,17.938,29.719,30.047,41.992c1.301,1.32,2.695,2.543,4.031,3.824c8.504,8.148,17.73,15.484,27.508,21.957
	c0.344-0.043,0.699-0.043,1.047-0.086c-6.359-4.75-12.461-9.805-18.305-15.133c-4.316-3.945-8.539-7.984-12.52-12.246
	c-11.57-12.473-21.672-26.363-28.945-41.699c-2.879-5.84-5.176-11.938-7.168-18.137c-3.191-9.938-5.383-20.195-6.23-30.609
	c-0.625-7.816-0.508-15.719,0.355-23.547c-0.594,0.348-1.188,0.699-1.777,1.055
	C1155.379,1477.219,1155.02,1481.676,1154.906,1486.148z"/>
<path style="fill:#A1A8C3;" d="M1348.328,1515.609c-9.766,5.543-17.602,14.371-26.777,20.891
	c-6.801,4.832-13.949,9.34-21.617,12.648c-3.27,1.41-6.625,2.625-10.105,3.52c-22.934,5.875-48.957-2.938-63.602-21.539
	c-7.828-9.941-12.172-22.41-12.828-35.004c-0.086-1.605-0.094-3.16-0.039-4.68c-0.5,3.348-0.852,6.723-1.012,10.121
	c-0.621,13.434,1.973,27.363,9.469,38.535c8.113,12.094,21.465,20.098,35.598,23.59c8.422,2.078,17.297,2.969,25.949,2.199
	c9.344-0.824,14.996-4.113,22.535-9.012c12.418-8.059,23.68-17.918,33.188-29.27c5.164-6.164,11.453-11.43,18.277-15.938
	C1354.242,1512.684,1351.211,1513.973,1348.328,1515.609z"/>
<path style="fill:#203A73;" d="M1334.742,1388.84c-3.086-4.348-6.172-9.109-6.934-11.598c-3.844,1.43-7.625,3.02-11.289,4.941
	c-4.516,2.371-8.359,4.965-11.891,7.785c7.945,1.082,16.227,7.965,20.23,13.727c0.07,0.102,0.129,0.203,0.199,0.297
	c7.258,10.57,11.133,22.367,4.117,33.82c-3.656,5.973-8.598,11.043-13.492,16.059c-5.16,5.281-10.891,10.859-18.211,11.855
	c-8.117,1.098-15.719-3.742-22.48-8.367c-2.672-1.828-5.406-3.832-7.914-6.023c-4.48-3.906-8.113-8.48-9.09-13.977
	c-5.828,6.609-11.793,13.637-18.527,18.555c-1.73,1.273-3.473,2.609-5.199,3.984c-0.715-0.094-1.422-0.223-2.137-0.305
	c-2.762-0.34-5.914-0.563-9.34-0.648c-0.125,0.879-0.465,1.762-0.832,2.578c-0.461,1.051-0.906,2.074-1.344,3.098l1.004,7.16
	c1.543,5.809,3.039,11.617,5.469,17.098c7.703,17.359,25.242,29.93,44.152,31.664c18.914,1.734,38.441-7.449,49.168-23.117
	c10.316-15.066,12.332-34.301,20.637-50.559c3.969-7.785,9.539-15.504,8.996-24.215
	C1349.438,1412.895,1335.188,1399.992,1334.742,1388.84z"/>
<path style="fill:#20325F;" d="M1341.039,1446.867c-8.305,16.258-10.32,35.492-20.637,50.559
	c-10.727,15.668-30.254,24.852-49.168,23.117c-18.91-1.734-36.449-14.305-44.152-31.664c-2.43-5.48-3.926-11.289-5.469-17.098
	l-1.004-7.16c-0.637,1.457-1.246,2.902-1.832,4.336c-0.184,0.465-0.379,0.938-0.563,1.406c-1.453,3.688-2.66,7.348-3.523,11.133
	c-0.723,3.184-1.211,6.457-1.332,9.949c-0.055,1.52-0.047,3.074,0.039,4.68c0.656,12.594,5,25.063,12.828,35.004
	c14.645,18.602,40.668,27.414,63.602,21.539c3.48-0.895,6.836-2.109,10.105-3.52c6.113-3.184,11.789-7.223,16.648-12.063
	c8.938-8.887,13.73-18.852,16.746-29.602c1.852-6.598,3.043-13.48,4.082-20.605c0.41-2.813,0.801-5.656,1.203-8.539
	c2.367-16.953,6.137-34.602,17.277-47.602c5.73-6.691,13.699-9.715,21.965-11.953c0.215-0.059,0.398-0.137,0.605-0.199
	c-5.195-0.84-10.52-2.961-14.906-4.957c-6.398-2.918-12.332-6.84-17.57-11.535c-1.547-1.383-3.047-2.82-4.465-4.336
	c-0.684-0.73-3.715-4.609-6.777-8.918c0.445,11.152,14.695,24.055,15.293,33.813
	C1350.578,1431.363,1345.008,1439.082,1341.039,1446.867z"/>
<path style="fill:#EBF2E5;" d="M1387.258,1508.453c-10.043-0.352-20.418,0.148-29.895,3.219
	c-6.824,4.508-13.113,9.773-18.277,15.938c-9.508,11.352-20.77,21.211-33.188,29.27c-7.539,4.898-13.191,8.188-22.535,9.012
	c-8.652,0.77-17.527-0.121-25.949-2.199c-14.133-3.492-27.484-11.496-35.598-23.59c-7.496-11.172-10.09-25.102-9.469-38.535
	c0.16-3.398,0.512-6.773,1.012-10.121c0.121-3.492,0.609-6.766,1.332-9.949c0.863-3.785,2.07-7.445,3.523-11.133
	c0.184-0.469,0.379-0.941,0.563-1.406c0.586-1.434,1.195-2.879,1.832-4.336c0.438-1.023,0.883-2.047,1.344-3.098
	c0.367-0.816,0.707-1.699,0.832-2.578c0.086-0.582,0.102-1.16-0.094-1.723c-0.559-1.637-2.355-2.453-4.004-2.996
	c-10.809-3.516-20.434-1.695-29.945,1.93c-4.191,1.602-8.367,3.555-12.609,5.559c-6.316,2.984-12.363,6.453-18.352,10.027
	c-0.863,7.828-0.98,15.731-0.355,23.547c0.848,10.414,3.039,20.672,6.23,30.609c5.574,6.18,15.371,9.898,23.277,9.172
	c3.848-0.359,7.613-1.617,11.48-1.512c9.828,0.266,17.234,9.039,21.711,17.801c7.109,13.914,13.266,26.371,27.043,34.953
	c13.98,8.711,32.242,6.637,47.691,0.926c15.453-5.711,29.629-14.676,45.398-19.438c14.285-4.309,29.375-5.02,44.023-7.859
	c14.645-2.824,29.613-8.289,39.18-19.734c5.551-6.633,5.352-15.941,7.141-23.762
	C1416.32,1511.926,1401.699,1508.953,1387.258,1508.453z"/>
<path style="fill:#EBF2E5;" d="M591.656,1129.293c-0.246-6.055-3.098-12.18-11.492-19.148
	c-20.289-16.848-45.293-29.34-72.609-36.137c-3.852-0.961-8.273-1.746-11.895,0.168c-3.527,1.867-5.035,5.625-6.242,9.035
	c-0.488,1.391-0.949,2.789-1.41,4.191c-8.719,26.637-12.512,54.871-46.301,64.996c-36.125,8.563-53.504-16.883-75.918-36.039
	c-0.629-0.531-1.281-1.07-1.953-1.586c-2.297-1.762-4.887-3.234-7.973-3.121c-4.094,0.156-7.527,3.047-10.387,5.809
	c-20.25,19.547-35.652,42.875-44.793,67.609c-0.195,0.52-0.293,0.969-0.465,1.473c11.539,1.977,22.828,6.336,32.781,12.398
	c22.871,13.934,39.891,35.582,55.063,57.648c15.168,22.07,29.184,45.23,48.121,64.16c10.496,10.484,22.676,19.691,36.746,24.383
	c14.074,4.699,30.254,4.434,43.059-3.055c15.418-9.008,23.652-26.785,27.231-44.277c3.578-17.492,3.438-35.586,6.93-53.094
	c5.023-25.141,18.18-48.25,36.367-66.281c-1.813-3.426-2.973-7.105-3-11.219C583.41,1151.543,592.109,1140.547,591.656,1129.293z"/>
<path style="fill:#A1A8C3;" d="M470.793,1553.438c15.781,5.086,35.613,11.07,55.609,13.938c16.57,2.379,34.031-2.305,47.188-12.648
	c15.883-12.488,27.285-29.195,38.406-41.492c0.699-0.773,1.359-1.773,1.988-2.957c18.648-35.117,6.41-244.809,6.164-278.117
	c-0.012-1.688-0.102-3.352-0.269-4.992c-0.508-4.883-1.727-9.555-3.801-13.918c-0.883-1.867-2.008-3.641-3.266-5.367
	c-5.414-7.398-13.695-13.758-20.094-20.855c2.387,7.75,6.789,13.73,11.281,23.715c8.309,18.469,6.18,39.727,4.203,59.879
	c-5.824,59.465-8.477,119.758-8.656,179.598c-0.027,9.922-3.039,19.602-8.648,27.785c-17.426,25.395-47.262,54.395-52.621,55.836
	c-4.086,1.102-37.809-1.395-59.773-8.973c-11.156-3.848-20.563-11.535-26.543-21.711c-25.504-43.414-95.781-163.148-103.652-177.852
	c-6.977-13.031-18.207-26.625-14.93-41.703c2.742-12.637,8.793-24.078,3.246-37c-3.051-7.105-7.988-13.305-14.355-17.711
	c-0.281-0.195-1.043-0.551-2.07-1c2.215,2.422,4.324,5.094,6.125,8.266c9.668,17-6.625,38.102-5.164,56.156
	c0.25,3.102,0.891,6.133,1.832,9.105c1.016,3.18,2.391,6.285,4.102,9.305c1.441,2.539,3.496,6.41,5.992,11.219
	C359.992,1373.793,442.902,1544.449,470.793,1553.438z"/>
<path style="fill:#C6CAD6;" d="M970.949,1605.84c-4.43-3.07-17.855-11.184-17.855-11.184s37.48,37.465,61.586,48.691
	c4.805,2.23,14.555,6.215,14.555,6.215S990.781,1619.582,970.949,1605.84z"/>
<path style="fill:#C6CAD6;" d="M1408.859,1369.344c-9.285,5.813-19,10.938-29.035,15.328c-8.766,3.832-21.539,5.508-29.254,10.863
	c-2.883,2.004-4.23,4.242-4.586,6.558c5.238,4.695,11.172,8.617,17.57,11.535c4.387,1.996,9.711,4.117,14.906,4.957
	c3.574,0.578,7.09,0.566,10.195-0.566c8.605-3.156,19.824-10.234,26.441-16.566c7.367-7.051,12.906-16.086,16.563-25.566
	c2.895-7.531,3.063-15.742,0.633-23.441C1424.859,1358.574,1417.031,1364.23,1408.859,1369.344z"/>
<path style="fill:#C6CAD6;" d="M1325.059,1403.992c-4.145,1.633-7.625,4.621-10.809,7.758c-7.543,7.434-14.094,15.844-21.859,23.07
	c-7.578,7.043-16.438,10.336-24.758,16.07c-0.211,0.148-0.355,0.297-0.555,0.445c2.508,2.191,5.242,4.195,7.914,6.023
	c6.762,4.625,14.363,9.465,22.48,8.367c7.32-0.996,13.051-6.574,18.211-11.855c4.895-5.016,9.836-10.086,13.492-16.059
	C1336.191,1426.359,1332.316,1414.563,1325.059,1403.992z"/>
<path style="fill:#C6CAD6;" d="M1642.23,1493.465c-22.184,6.262-44.086,13.488-65.609,21.727c-2.004,0.77-4.117,1.715-6.008,2.887
	c1.426,9.988,3.152,19.133,4.535,20.809c1.941,2.359,3.902,3.527,5.918,3.992c3.902,0.914,8.004-0.984,12.59-3.16
	c7.313-3.473,62.914-31.27,83.574-41.488c6.313-3.125,10.512-10.113,9.117-16.691
	C1671.504,1484.918,1656.77,1489.363,1642.23,1493.465z"/>
<path style="fill:#203A73;" d="M898.734,569.797c-4.129-3.234-9.563-3.879-14.621-4.313c-2.492-0.215-4.988-0.34-7.484-0.52
	c0.363-4.109,0.719-8.215,1.098-12.32c1.211-13.226,2.434-26.461,3.105-39.75c1.039-21.613,0.543-43.488-3.883-64.844
	c-4.484-21.23-13.5-41.887-27.644-58.609c-6.895-8.461-14.758-16.082-23.074-23.098c-8.316-7.023-17.062-13.535-26.215-19.406
	c-18.305-11.75-37.738-21.555-57.531-30.375c-19.852-8.691-40.02-16.719-60.707-23.23c-20.656-6.578-41.73-11.836-63.051-15.684
	c-0.98-0.172-1.965-0.297-2.945-0.465c7.492-12.43,15.199-21.391,22.953-25.641c-23.438-2.129-50.156,2.129-65.391,5.27
	c-45.926,9.469-88.988,33.063-121.758,66.598c-19.27,19.719-34.953,42.473-47.234,67.039c5.094,4.156,10.398,7.82,15.922,10.934
	c5.297,2.992,10.777,5.5,16.391,7.594c6.512-19.625,16.031-38.211,28.844-54.691c33.977-43.715,88.531-68.492,142.164-62.188
	c2.406-4.855,4.844-9.391,7.297-13.555c1.156,0.219,2.32,0.398,3.473,0.629c21.211,4.063,42.176,9.438,62.688,16.168
	c20.539,6.656,40.57,14.816,60.273,23.637c19.633,8.941,38.863,18.852,56.887,30.629c18.047,11.645,35.176,25.066,48.977,41.535
	c13.996,16.277,23,36.422,27.613,57.359c4.555,21.047,5.211,42.773,4.394,64.336c-0.352,13.25-1.25,26.492-2.144,39.734
	c-0.281,4.121-0.543,8.246-0.801,12.371c-2.34-0.168-4.676-0.391-7.016-0.488c-9.894-0.43-19.867-0.211-29.656,1.395
	c-9.184,1.5-18.188,4.269-26.387,8.719c-0.465,0.254-0.976,0.578-1.031,1.086c-0.039,0.379,0.207,0.688,0.519,0.965
	c0.211,0.184,0.441,0.359,0.676,0.5c9.738,5.684,19.918,10.586,30.344,14.875c10.469,4.309,21.184,8,31.992,11.348
	c3.117,0.965,6.238,1.898,9.363,2.809c3.027,0.879,6.27,2.223,9.422,2.422c0.793,0.051,1.957,0.078,2.594-0.504
	c1.031-0.953,1.164-2.563,0.941-3.859c-0.332-1.957-0.605-3.945-0.793-5.949c-0.043-0.481-0.059-0.969-0.094-1.445
	c-0.367-4.879-0.289-9.894,0.891-14.68c0.324-1.313,0.727-2.609,1.215-3.871c0.426-1.102,1.117-2.148,1.371-3.297
	C901.125,572.957,900.332,571.051,898.734,569.797z"/>
<path style="fill:#097CC0;" d="M883.285,596.656c0.25,1.356,0.949,2.996,2.32,2.961c1.289-0.027,1.953-1.527,2.266-2.773
	c1.535-6.18,1.949-12.629,1.223-18.949c-0.145-1.258-0.543-3.656-1.969-4.101c-2.473-0.777-2.824,3.055-3.156,4.519
	c-1.359,5.984-1.773,12.231-0.691,18.297L883.285,596.656z"/>
</svg>
